PathFileType	4	(X/Y/Z)	21_coords_data.trc
DataRate	CameraRate	NumFrames	NumMarkers	Units	OrigDataRate	OrigDataStartFrame	OrigNumFrames
30.0	30.0	7	21	m	30.0	30	59
Frame#	Time	THUMB_TIP	THUMB_IP	THUMB_MCP	THUMB_CMC	INDEX_TIP	INDEX_DIP	INDEX_PIP	INDEX_MCP	MIDDLE_TIP	MIDDLE_DIP	MIDDLE_PIP	MIDDLE_MCP	RING_TIP	RING_DIP	RING_PIP	RING_MCP	PINKY_TIP	PINKY_DIP	PINKY_PIP	PINKY_MCP	WRIST
X1	Y1	Z1	X2	Y2	Z2	X3	Y3	Z3	X4	Y4	Z4	X5	Y5	Z5	X6	Y6	Z6	X7	Y7	Z7	X8	Y8	Z8	X9	Y9	Z9	X10	Y10	Z10	X11	Y11	Z11	X12	Y12	Z12	X13	Y13	Z13	X14	Y14	Z14	X15	Y15	Z15	X16	Y16	Z16	X17	Y17	Z17	X18	Y18	Z18	X19	Y19	Z19	X20	Y20	Z20	X21	Y21	Z21
28	0.9666666666666625	0.4890372716657311	-0.02796842819238854	-0.17227551199226743	0.4881034512074429	-0.028794889106873667	-0.14933112397017112	0.483489635676481	-0.03101699914465339	-0.11862941500753765	0.47976079203507604	-0.026680216593219508	-0.07438941000980359	0.5362724759810523	-0.019820353191739137	-0.09491453730941768	0.5478475014441493	-0.011013117337729472	-0.10570580146800934	0.5471803408588459	0.007515792494788065	-0.12268355839205125	0.5057597855964551	0.01344997418278815	-0.11476148900021688	0.5308537225209233	-0.01823285096776539	-0.08234829439182301	0.5452306689440781	-0.008393053738146028	-0.08729620324564313	0.551925470312336	0.016249507807706065	-0.10134374200154117	0.5087528380710097	0.026806876139261804	-0.09678153636533249	0.5314573988337358	-0.007206805956992635	-0.07337810858666527	0.5461808310510268	0.0027275233374201013	-0.07646512093082747	0.5522779934145661	0.025484002537229933	-0.08453650523225054	0.513175390168872	0.03319608671798291	-0.07773716622034477	0.5374243831279257	-0.008209183908418516	-0.06153291011115736	0.5514583362917597	0.0014531013398092485	-0.06317254494159807	0.5492956302873104	0.02216476037358872	-0.06584871791933611	0.514469282113723	0.028770836207841488	-0.05918773556204304	0.46228308100186083	-0.023011742144276925	-0.051989820119430985
29	0.9999999999999956	0.49039958793347815	-0.028610343392013293	-0.1721403957376857	0.48907309627089174	-0.02932690548464134	-0.14921165921260648	0.4839278401328756	-0.03134221481132449	-0.11858022327512574	0.4797160437594854	-0.026801750472395303	-0.07440404242055199	0.5451011139520432	-0.020545298499123343	-0.09666971767664223	0.5526864401946308	-0.009359354922347518	-0.1087253177069476	0.5475446294002448	0.009348018356021948	-0.12471299420412774	0.5063017817762023	0.012889355376714984	-0.11470686878187386	0.538617685320133	-0.018533812012259232	-0.08344635887066754	0.5509350210393933	-0.006706617173038887	-0.08947965838371608	0.5528514444849026	0.019073219008651554	-0.10293836997222694	0.5092283787186853	0.026436177207311173	-0.09669634300007512	0.5382662831732793	-0.008446435824183918	-0.07417382329871791	0.5508822095321982	0.003912577210078538	-0.07779227585820647	0.5530270277061132	0.027555486037154964	-0.08531508093313644	0.5136689024224639	0.032775213687192495	-0.07767222469897883	0.5432407703058377	-0.00847953191601758	-0.06231045419260672	0.5551867072417799	0.0036770258647375043	-0.06389560202345812	0.5501103203844702	0.023938323691520713	-0.0660221310849407	0.5149821993850383	0.028263724463522988	-0.05908026719900639	0.46228308100186083	-0.023011742144276925	-0.051989820119430985
30	1.0333333333333288	0.49153396562028856	-0.02923989203696864	-0.172006958447936	0.4898943906137913	-0.02985935004487783	-0.14909564976478773	0.4842998071671583	-0.03169309885795257	-0.11853165131319099	0.47966600138368143	-0.026924518770057082	-0.07442180561060052	0.5544564899058463	-0.020118334943641902	-0.09970814906958181	0.5573346385252889	-0.007282799037888754	-0.11215665414193965	0.547775788703811	0.010986110106915636	-0.1265401579483605	0.5069100616194848	0.012275663301994921	-0.11462523048628859	0.5472273752554897	-0.017981807850589338	-0.08509841934121187	0.5568541939377057	-0.004284987259209561	-0.09200649199190758	0.5535909943880171	0.0218533384230869	-0.10447842084133219	0.5098053761517372	0.02596796950277802	-0.09660204047057919	0.5461440165058205	-0.008935783655480978	-0.0752694786757021	0.5558511786894699	0.005714119004904816	-0.0792883534412987	0.5536810436701046	0.029576169700035626	-0.08607606510435073	0.5142316440229934	0.032267983698387126	-0.07763688037590799	0.5498699851910698	-0.008069836262015961	-0.06315509644116635	0.5588717518373798	0.006421223273715304	-0.06456129371654062	0.5508150841412487	0.025745073783125627	-0.06613956052670877	0.5155193118628111	0.02771914804982889	-0.05898449651174564	0.4622830810018609	-0.023011742144276925	-0.051989820119430985
31	1.0666666666666622	0.49308400959398513	-0.030099480468031126	-0.17174958518110084	0.49103238915340885	-0.030579320483488992	-0.14886813839276658	0.48485810190604145	-0.032158558566357076	-0.11840169481848928	0.4796754392238679	-0.02706750571920835	-0.07438906948858726	0.5636065554272274	-0.01845920537260315	-0.10375593445035369	0.5616919173389152	-0.004913097409837142	-0.11562341607249549	0.5480967893175854	0.012321556140795442	-0.127876947974495	0.5076982401133521	0.01162948331977065	-0.11441907476200197	0.5564348148061763	-0.016409895106631933	-0.08706125399977371	0.5626733298579342	-0.001164648398058854	-0.09458876240187686	0.5542151298088436	0.024427197578897664	-0.10567595417532871	0.5105199418753303	0.02544082073490661	-0.09641037051575474	0.5549316797034097	-0.008288906613181157	-0.07653880684010972	0.5608470258013989	0.008217984325115446	-0.08072583825773605	0.5542557782271527	0.031502283700770684	-0.08660604548196349	0.5148618015615853	0.03172946694332146	-0.07750748382381911	0.5571892178921396	-0.006584387817356152	-0.06383136213186624	0.5623519930495567	0.009695988698599445	-0.06496938373652872	0.5513859620883923	0.027570503956489523	-0.06599889248065938	0.5160455557920757	0.02718618489986724	-0.05880226600195493	0.4622830810018609	-0.023011742144276925	-0.051989820119430985
32	1.0999999999999952	0.4948445113705452	-0.030871274936747684	-0.171387951786256	0.49235046778940983	-0.031243854760540368	-0.14854849183444674	0.48555642360653506	-0.032608542653236094	-0.11820382853763822	0.4797486418723517	-0.02720470294768662	-0.07430669665223122	0.571973218051428	-0.015686375087735405	-0.10846936234668214	0.5656242136670071	-0.002351215612370061	-0.11895094930158445	0.5485685199695634	0.013343353978102157	-0.12868715137779485	0.508636098711241	0.011002631569085208	-0.11407349868410399	0.5658718521879317	-0.013669080071890827	-0.08934605019541719	0.5680901260804672	0.0025514986651606897	-0.09709021486133185	0.55476982237942	0.02671202579045595	-0.10648425490487812	0.5113547566220269	0.024888230905901976	-0.0960941750928499	0.5641604121943242	-0.006163442926914731	-0.07798738272739447	0.5655867701171784	0.011341771022838398	-0.082053460401183	0.554770855610475	0.033251149998509866	-0.08686751121978586	0.515544838139098	0.031166367498467573	-0.07729180919524747	0.5647218206742485	-0.0037862710809153377	-0.06431246408421254	0.5654545375904211	0.013297420591958264	-0.0650938761054578	0.5518388193353334	0.029270898532140266	-0.06561564031713862	0.5165633864487253	0.026657644844083173	-0.0585659459390625	0.4622830810018609	-0.023011742144276925	-0.051989820119430985
33	1.1333333333333284	0.4963327374745114	-0.031507672249322716	-0.17104087587709815	0.49348859708701914	-0.03180638666140634	-0.14824127861845682	0.4861751908219473	-0.03300183706472004	-0.11801041711675253	0.47982327088114884	-0.027353288570969747	-0.07421958459464295	0.5788562277345723	-0.012094470222795972	-0.11358656169366443	0.5688450427463578	0.0003028710654060518	-0.12219365784251668	0.5490460590845772	0.014090739305148259	-0.12925798855137038	0.5095785426279023	0.010392444368185871	-0.11369283987551948	0.5749387452714543	-0.0097072307866648	-0.09210451322674729	0.5727254815888183	0.006637922347430325	-0.09958364639136619	0.5551937627753771	0.028664093913863042	-0.10712660016111131	0.5122049261072767	0.024311181667949433	-0.09576174213723943	0.5729570707080551	-0.0024677488531005265	-0.07973014588354088	0.569734294879168	0.01488907033774689	-0.08338453277233282	0.5551893430809618	0.03476451228229682	-0.0870711523210086	0.5162331528684778	0.03057506777280783	-0.07709194229061611	0.5718512811892085	0.00030715070117859344	-0.06475957361992424	0.5680550144611252	0.0169941778904803	-0.06512217879466331	0.5521928271433747	0.03074914040959098	-0.06518572873140904	0.5170907596457879	0.0261078783137918	-0.05831644968969307	0.46228308100186094	-0.023011742144276925	-0.051989820119430985
34	1.1666666666666616	0.49763777653983754	-0.03195992658257951	-0.17072127539630377	0.4944616809772949	-0.032229630701165135	-0.1479651844168316	0.48666507168195894	-0.03330661911526844	-0.11785085262195738	0.47988471065980387	-0.027451935872703337	-0.0741514317043015	0.584053035130269	-0.008066920057394955	-0.11869363965107727	0.5712509351406467	0.002936863862338601	-0.12525282979190466	0.5494454719744529	0.014641840122227134	-0.12967155583718248	0.510412667016992	0.009891694734337486	-0.11331575105885605	0.5827920433749076	-0.004784896933742622	-0.09528571234932537	0.5763482347879187	0.010761240323951204	-0.10197861510218154	0.5554647866570565	0.03027998363547668	-0.10766278643179217	0.5129859100724101	0.023772281365278425	-0.09544219821890965	0.5803794741161687	0.002430149765525691	-0.08172365550305438	0.5730582955632302	0.01862366380639835	-0.08475193019403815	0.555477528339638	0.03607698625892641	-0.08729714888757989	0.5168771053745208	0.0300036255363082	-0.07691242595208425	0.5778728518036655	0.005310827078963687	-0.06522598725309459	0.5700688877763376	0.020545400225529975	-0.06514900347496311	0.5524569915786872	0.031969376485868506	-0.0647941827788222	0.5175962148088086	0.025563456202298274	-0.05811781555395801	0.4622830810018609	-0.023011742144276925	-0.051989820119430985
